<svg xmlns="http://www.w3.org/2000/svg" width="12.821" height="12.82" viewBox="0 0 12.821 12.82">
  <path id="Icon_awesome-linkedin-in" data-name="Icon awesome-linkedin-in" d="M2.87,12.821H.212V4.262H2.87ZM1.539,3.094A1.547,1.547,0,1,1,3.079,1.54,1.552,1.552,0,0,1,1.539,3.094Zm11.278,9.727H10.166V8.654c0-.993-.02-2.267-1.382-2.267C7.4,6.388,7.19,7.467,7.19,8.583v4.238H4.535V4.262H7.084V5.429h.037A2.793,2.793,0,0,1,9.636,4.047c2.69,0,3.185,1.771,3.185,4.072v4.7Z" transform="translate(0 -0.001)" fill="#fff" opacity="0.998"/>
</svg>
