<svg xmlns="http://www.w3.org/2000/svg" width="14.652" height="11.9" viewBox="0 0 14.652 11.9">
  <path id="Icon_awesome-twitter" data-name="Icon awesome-twitter" d="M13.146,6.347c.009.13.009.26.009.39a8.486,8.486,0,0,1-8.544,8.544A8.486,8.486,0,0,1,0,13.933a6.212,6.212,0,0,0,.725.037,6.014,6.014,0,0,0,3.728-1.283A3.008,3.008,0,0,1,1.646,10.6a3.787,3.787,0,0,0,.567.046,3.176,3.176,0,0,0,.79-.1A3,3,0,0,1,.595,7.6V7.564a3.024,3.024,0,0,0,1.357.381,3.007,3.007,0,0,1-.93-4.016A8.536,8.536,0,0,0,7.215,7.072a3.39,3.39,0,0,1-.074-.688,3.006,3.006,0,0,1,5.2-2.055A5.912,5.912,0,0,0,14.243,3.6a3,3,0,0,1-1.32,1.655,6.02,6.02,0,0,0,1.729-.465A6.455,6.455,0,0,1,13.146,6.347Z" transform="translate(0 -3.381)" fill="#fff" opacity="0.998"/>
</svg>
